<?xml version="1.0" encoding="utf-8"?>
<!-- Generator: Adobe Illustrator 17.0.0, SVG Export Plug-In . SVG Version: 6.00 Build 0)  -->
<!DOCTYPE svg PUBLIC "-//W3C//DTD SVG 1.1//EN" "http://www.w3.org/Graphics/SVG/1.1/DTD/svg11.dtd">
<svg version="1.1" xmlns="http://www.w3.org/2000/svg" xmlns:xlink="http://www.w3.org/1999/xlink" x="0px" y="0px"
	 width="29.243px" height="29.243px" viewBox="0 0 29.243 29.243" enable-background="new 0 0 29.243 29.243" xml:space="preserve">
<g id="Layer_1" display="none">
</g>
<g id="Layer_6">
</g>
<g id="Layer_2">
	<g>
		<circle cx="14.621" cy="14.621" r="14.621"/>
		<path fill="#FFFFFF" d="M15.435,17.248c0,0.445-0.089,0.836-0.267,1.172c-0.178,0.336-0.423,0.618-0.735,0.846
			c-0.312,0.228-0.673,0.401-1.083,0.519c-0.41,0.119-0.848,0.178-1.313,0.178h-5.09V9.428h5.639c0.366,0,0.698,0.079,0.994,0.238
			c0.297,0.158,0.549,0.363,0.757,0.616c0.208,0.252,0.368,0.54,0.482,0.861c0.114,0.322,0.17,0.646,0.17,0.972
			c0,0.514-0.129,0.997-0.386,1.447c-0.257,0.45-0.633,0.784-1.128,1.002c0.604,0.178,1.081,0.497,1.432,0.957
			C15.26,15.979,15.435,16.556,15.435,17.248z M8.995,11.179v2.656h2.731c0.346,0,0.641-0.119,0.883-0.356
			c0.242-0.237,0.364-0.564,0.364-0.979c0-0.406-0.111-0.727-0.334-0.965c-0.222-0.237-0.497-0.356-0.823-0.356H8.995z
			 M13.373,16.862c0-0.188-0.032-0.368-0.096-0.542c-0.064-0.173-0.151-0.324-0.26-0.453c-0.109-0.128-0.237-0.23-0.386-0.304
			c-0.148-0.074-0.312-0.111-0.49-0.111H8.995v2.775h3.042c0.188,0,0.364-0.035,0.527-0.104c0.163-0.069,0.304-0.166,0.423-0.289
			c0.119-0.124,0.213-0.27,0.282-0.438C13.338,17.228,13.373,17.05,13.373,16.862z"/>
		<path fill="#FFFFFF" d="M19.871,19.964c-0.604,0-1.15-0.103-1.639-0.309c-0.969-0.412-1.651-1.105-2.049-2.078
			c-0.187-0.47-0.28-0.963-0.28-1.481c0-0.537,0.091-1.042,0.273-1.517c0.39-0.985,1.073-1.687,2.049-2.107
			c0.494-0.211,1.047-0.316,1.661-0.316c0.613,0,1.162,0.106,1.646,0.316c1.591,0.694,2.341,2.236,2.272,3.911
			c-0.005,0.115-0.017,0.211-0.036,0.288h-5.823c0.029,0.297,0.101,0.561,0.216,0.791c0.115,0.23,0.264,0.427,0.446,0.59
			c0.182,0.163,0.388,0.288,0.618,0.374c0.23,0.086,0.469,0.129,0.719,0.129c0.383,0,0.745-0.094,1.085-0.281
			c0.34-0.187,0.573-0.433,0.697-0.74l1.653,0.46c-0.278,0.575-0.721,1.047-1.33,1.416C21.441,19.779,20.714,19.964,19.871,19.964z
			 M21.827,15.42c-0.048-0.566-0.257-1.019-0.626-1.359c-0.369-0.34-0.817-0.51-1.344-0.51c-0.259,0-0.501,0.046-0.726,0.137
			c-0.225,0.091-0.424,0.218-0.597,0.381c-0.172,0.163-0.314,0.359-0.424,0.59c-0.11,0.23-0.175,0.484-0.194,0.762L21.827,15.42
			L21.827,15.42z"/>
		<path fill="#FFFFFF" d="M17.336,9.928h5.042v1.251h-5.042V9.928z"/>
	</g>
</g>
<g id="Layer_5">
</g>
<g id="Layer_3">
</g>
<g id="Layer_4">
</g>
</svg>
