<?xml version="1.0" encoding="utf-8"?>
<!-- Generator: Adobe Illustrator 17.0.0, SVG Export Plug-In . SVG Version: 6.00 Build 0)  -->
<!DOCTYPE svg PUBLIC "-//W3C//DTD SVG 1.1//EN" "http://www.w3.org/Graphics/SVG/1.1/DTD/svg11.dtd">
<svg version="1.1" id="Layer_1" xmlns="http://www.w3.org/2000/svg" xmlns:xlink="http://www.w3.org/1999/xlink" x="0px" y="0px"
	 width="300px" height="300px" viewBox="0 0 300 300" enable-background="new 0 0 300 300" xml:space="preserve">
<g>
	<path d="M209.317,256.379c-2.092-0.014-58.813-0.847-59.509-0.749c-2.994,0.406-6.264,2.221-7.243,5.122
		c-1.11,3.284-3.035,8.512-2.248,10.797c0.794,2.297,3.731,2.418,10.012,2.559c14.091,0.332,38.804,0.395,52.903,0.405
		c3.948,0.01,6.324-2.739,7.478-6.334c0.626-1.974,0.945-4.058,1.241-6.135C212.209,260.138,212.549,256.4,209.317,256.379z"/>
	<path d="M281.447,237.801c-8.412-1.582-24.549-6.944-33.148-10.416c-3.776-1.529-9.898-3.916-10.988-7.874
		c-4.489-16.35-17.744-112.707-18.711-123.923c-0.581-6.727-4.328-11.8-10.179-14.969c-4.961-2.661-10.116-5.081-15.414-6.961
		c-10.718-3.801-41.238-21.341-45.882-38.581c-1.346-5.015-4.885-7.032-14.717-7.1c-4.178-0.033-30.34-0.008-35.815-0.047
		c-2.794-0.021-7.571,2.303-5.035,10.852c1.893,6.355,4.598,11.098,10.299,14.912c9.923,6.655,32.799,14.965,43.006,19.784
		c17.144,8.105,20.156,17.346,20.718,24.429c1.286,15.989,3.024,41.248,4.791,75.666c0.244,4.758,0.091,6.678-5.442,6.643
		c-14.442-0.104-26.707-0.418-41.155-0.694c-2.32-0.047-4.406-2.881-3.832-5.264c1.921-7.92,11.435-64.471,12.329-81.721
		c0.22-4.025-1.285-7.456-5.023-9.405c-6.667-3.466-40.761-18.435-49.843-28.142c-4.726-5.055-6.536-9.521-6.486-16.893
		C71,26.57,67.961,27.978,62.229,27.978c-1.589,0-39.575-0.067-40.805,0.135c-4.717,0.786-5.703,2.743-6.742,5.341
		c-0.919,2.354-0.875,6.502-0.672,9.008c0.754,9.423,16.445,19.982,30.724,28.783C50.592,74.86,72.297,83.42,72.29,91.903
		c0,19.061-12.136,70.306-25.111,117.26c-0.996,3.624-2.121,7.212-2.999,10.867c-0.718,2.954,1.013,6.397,4.025,7.685
		c12.099,5.228,24.22,10.416,36.418,15.399c2.245,0.923,3.574,1.114,6.032,1.114c14.002,0,26.211-0.074,39.667,0.004
		c2.05,0.016,4.327-3.599,0.348-5.583c-6.584-3.255-17.946-8.082-21.821-10.354c-2.694-1.591-1.822-3.953,0.787-3.938
		c17.26,0.129,59.568,0.417,75.213,0.526c6.167,0.053,31.118,19.131,45.05,19.231c12.008,0.079,42.765,0.006,52.676,0.079
		C284.809,244.207,285.228,238.522,281.447,237.801z"/>
</g>
</svg>
