<?xml version="1.0" encoding="utf-8"?>
<!-- Generator: Adobe Illustrator 17.0.0, SVG Export Plug-In . SVG Version: 6.00 Build 0)  -->
<!DOCTYPE svg PUBLIC "-//W3C//DTD SVG 1.1//EN" "http://www.w3.org/Graphics/SVG/1.1/DTD/svg11.dtd">
<svg version="1.1" xmlns="http://www.w3.org/2000/svg" xmlns:xlink="http://www.w3.org/1999/xlink" x="0px" y="0px"
	 width="29.243px" height="29.243px" viewBox="0 0 29.243 29.243" enable-background="new 0 0 29.243 29.243" xml:space="preserve">
<g id="Layer_1" display="none">
</g>
<g id="Layer_6">
</g>
<g id="Layer_2">
	<g>
		<circle cx="14.621" cy="14.621" r="14.621"/>
		<path fill-rule="evenodd" clip-rule="evenodd" fill="#FFFFFF" d="M13.497,17.802c-0.015,0.051-0.029,0.094-0.04,0.137
			c-0.652,2.554-0.724,3.121-1.394,4.307c-0.319,0.563-0.679,1.098-1.077,1.609c-0.045,0.058-0.087,0.132-0.177,0.114
			c-0.098-0.021-0.106-0.109-0.116-0.188c-0.107-0.776-0.166-1.554-0.141-2.337c0.034-1.021,0.16-1.371,1.476-6.903
			c0.019-0.084-0.002-0.155-0.031-0.231c-0.315-0.85-0.377-1.712-0.102-2.585c0.595-1.887,2.735-2.031,3.109-0.474
			c0.23,0.963-0.379,2.223-0.847,4.086c-0.388,1.537,1.421,2.629,2.968,1.507c1.426-1.034,1.979-3.514,1.874-5.271
			c-0.207-3.504-4.049-4.261-6.487-3.133c-2.794,1.292-3.43,4.756-2.168,6.339c0.16,0.201,0.283,0.324,0.231,0.529
			c-0.081,0.317-0.153,0.636-0.241,0.952c-0.065,0.235-0.262,0.32-0.499,0.224c-0.465-0.188-0.853-0.484-1.167-0.874
			c-1.072-1.327-1.378-3.951,0.039-6.173c1.569-2.462,4.489-3.457,7.155-3.155c3.183,0.362,5.196,2.537,5.573,5.005
			c0.172,1.124,0.048,3.896-1.53,5.855c-1.815,2.252-4.758,2.401-6.116,1.019C13.683,18.052,13.599,17.928,13.497,17.802z"/>
	</g>
</g>
<g id="Layer_5">
</g>
<g id="Layer_3">
</g>
<g id="Layer_4">
</g>
</svg>
